<svg xmlns="http://www.w3.org/2000/svg" viewBox="0 0 37 34" width="32" height="32">
 <g transform="translate(18 17)">
  <path d="M 1 -10 L 1.5 -9.5 Q 2 -9 2 -7.5 Q 2 -6 1.5 -4 Q 1 -2 0.5 -0.5 Q 0 1 -0.5 2 Q -1 3 -2 4.5 Q -3 6 -4 7 Q -5 8 -6 8.5 Q -7 9 -7.5 9 Q -8 9 -8.5 8.5 Q -9 8 -9 6.5 Q -9 5 -8.5 2.5 Q -8 0 -7.5 -1.5 Q -7 -3 -6.5 -4 Q -6 -5 -5 -6.5 Q -4 -8 -3 -9 Q -2 -10 -1 -10.5 Q 0 -11 1.5 -11.5 Q 3 -12 5.5 -12 Q 8 -12 9 -11.5 Q 10 -11 10.5 -10.5 Q 11 -10 11.5 -9 Q 12 -8 12 -6.5 Q 12 -5 11.5 -4 Q 11 -3 10.5 -2.5 Q 10 -2 9 -1.5 Q 8 -1 6.5 -1 Q 5 -1 4 -1.5 Q 3 -2 2.5 -2.5 L 2 -3" fill="none" stroke="#0B0B0A" stroke-width="2" stroke-linecap="round" stroke-linejoin="round" />
 </g>
</svg>
